<?xml version="1.0" standalone="no"?>
<!DOCTYPE svg PUBLIC "-//W3C//DTD SVG 20010904//EN"
 "http://www.w3.org/TR/2001/REC-SVG-20010904/DTD/svg10.dtd">
<svg version="1.0" xmlns="http://www.w3.org/2000/svg"
 width="800.000000pt" height="600.000000pt" viewBox="0 0 800.000000 600.000000"
 preserveAspectRatio="xMidYMid meet">

<g transform="translate(0.000000,600.000000) scale(0.100000,-0.100000)"
fill="#000000" stroke="none">
<path d="M1907 5276 c-54 -20 -111 -60 -141 -98 -26 -36 -51 -121 -40 -141 4
-7 55 -76 113 -154 101 -137 107 -143 141 -143 34 0 43 -9 200 -195 l165 -196
28 32 c16 17 27 35 25 40 -2 6 -79 100 -172 209 -157 186 -171 200 -202 200
-31 0 -40 9 -123 118 -86 115 -88 119 -76 148 17 40 62 79 109 94 l38 12 105
-103 104 -104 -5 -43 -6 -43 161 -194 c89 -107 164 -195 168 -195 4 0 19 13
34 28 l27 28 -148 180 -148 179 4 46 4 45 -127 132 c-118 123 -130 132 -164
132 -20 -1 -53 -7 -74 -14z"/>
<path d="M5856 5159 l-128 -133 4 -45 4 -46 -148 -179 -148 -180 27 -28 c15
-15 30 -28 34 -28 4 0 79 88 168 195 l161 194 -6 43 -5 43 104 104 105 103 38
-12 c47 -15 92 -54 109 -94 12 -29 10 -33 -76 -148 -83 -109 -92 -118 -123
-118 -31 0 -45 -14 -202 -200 -93 -109 -170 -203 -172 -209 -2 -5 9 -23 25
-40 l28 -32 165 196 c157 186 166 195 200 195 34 0 40 6 141 143 58 78 109
147 113 154 3 6 1 34 -5 61 -20 93 -123 178 -232 189 l-53 5 -128 -133z"/>
<path d="M3825 5263 c-15 -12 -13 -429 2 -444 8 -8 23 -7 60 4 26 9 69 19 95
22 l46 7 -5 52 c-7 64 18 167 53 219 20 31 22 37 7 29 -14 -9 -20 -5 -30 18
-21 50 -193 120 -228 93z"/>
<path d="M4345 5240 c31 -34 13 -63 -58 -94 -35 -15 -78 -41 -95 -59 -42 -43
-73 -117 -79 -187 -5 -51 -3 -59 14 -64 43 -14 65 -52 84 -148 10 -51 32 -120
48 -153 18 -36 26 -62 20 -66 -15 -9 139 -23 260 -23 84 -1 105 -4 109 -16 3
-8 14 -27 24 -42 23 -33 21 -33 -31 -12 -37 14 -45 14 -98 -1 -71 -21 -97 -34
-157 -80 -47 -36 -70 -43 -81 -25 -7 12 12 50 34 68 9 7 37 24 64 37 26 14 47
28 47 31 0 4 -37 5 -83 2 -57 -3 -92 -10 -114 -23 -36 -21 -39 -21 -48 17 -6
24 -3 29 27 42 18 8 27 15 20 15 -7 1 -31 -8 -52 -19 -42 -21 -53 -53 -28 -78
16 -16 53 -15 67 2 19 23 98 41 116 26 12 -10 6 -19 -38 -60 -48 -44 -51 -49
-42 -76 8 -21 18 -30 38 -32 15 -2 27 1 27 7 0 11 60 69 86 84 7 4 22 3 33 -2
18 -10 17 -13 -12 -69 -22 -41 -28 -65 -24 -84 12 -47 63 -47 73 1 7 36 36 92
50 98 12 4 74 -23 74 -33 0 -2 -12 -28 -26 -56 -21 -42 -24 -55 -15 -75 16
-34 65 -29 69 7 3 31 33 100 42 100 7 0 72 -21 77 -25 2 -1 -6 -28 -18 -60
-23 -65 -19 -100 12 -110 29 -10 49 12 49 54 0 20 9 47 19 60 19 25 41 26 104
2 l28 -11 -19 -28 c-34 -49 -44 -92 -27 -119 25 -38 65 -23 65 25 0 28 28 79
48 87 21 8 78 -31 102 -70 23 -38 23 -39 15 -225 -5 -115 -8 -136 -23 -142 -9
-4 -60 -7 -112 -7 l-95 -1 3 50 c5 59 -27 123 -81 164 -17 13 -133 77 -257
142 -124 64 -249 133 -278 152 -67 44 -139 136 -267 341 -55 88 -110 166 -123
172 -35 19 -73 1 -100 -48 -33 -60 -55 -174 -49 -259 3 -62 10 -83 51 -159 26
-48 90 -151 142 -229 l94 -141 67 -17 c38 -9 91 -17 118 -18 92 -2 155 -36
181 -97 8 -19 24 -35 37 -38 157 -37 559 -56 759 -36 138 14 284 38 320 52 31
13 49 51 51 110 4 168 -66 255 -224 279 -110 17 -149 30 -149 51 0 22 16 24
50 4 14 -8 41 -15 60 -15 43 0 125 -21 166 -43 89 -46 139 -153 132 -282 -4
-80 -17 -104 -75 -134 l-32 -16 36 -57 c29 -46 33 -60 24 -76 -12 -22 -15 -65
-5 -75 4 -3 16 1 29 9 19 12 23 13 28 1 15 -39 -50 -96 -137 -122 -138 -41
-637 -81 -876 -70 -116 5 -159 3 -213 -10 -207 -48 -510 -67 -652 -41 -190 37
-437 137 -613 251 l-73 48 -30 -22 -30 -23 -197 47 c-108 26 -200 49 -204 51
-4 3 -16 31 -25 62 -14 45 -18 94 -18 242 0 198 15 282 67 383 11 23 27 68 35
101 27 115 74 146 238 153 219 10 508 -87 561 -189 22 -42 29 -119 14 -162
-11 -35 -10 -40 24 -92 38 -56 143 -167 177 -185 18 -9 19 -7 12 48 -13 99 -9
253 9 338 11 51 23 191 33 390 9 171 18 320 21 333 4 22 2 23 -33 17 -376 -65
-693 -204 -963 -422 -97 -79 -270 -258 -341 -353 -194 -259 -319 -556 -375
-885 -19 -107 -26 -462 -11 -542 l7 -43 -265 0 -264 0 49 -77 50 -78 0 -536 0
-536 210 -72 211 -73 77 30 c119 45 496 152 537 152 8 0 48 -27 88 -61 172
-146 425 -288 640 -360 l97 -33 0 -35 c0 -48 75 -120 156 -151 218 -82 550
-82 768 0 81 31 156 103 156 151 l0 35 98 33 c214 72 467 214 639 360 40 34
80 61 88 61 32 0 336 -83 476 -131 l147 -49 206 72 206 71 0 536 0 536 50 75
50 75 -265 3 -265 2 7 43 c15 80 8 435 -11 542 -36 211 -95 395 -185 574 -101
201 -194 333 -351 495 -177 182 -336 299 -555 406 -122 60 -293 125 -303 115
-3 -3 5 -90 17 -193 17 -138 28 -195 42 -219 27 -44 118 -125 189 -169 33 -20
60 -38 60 -40 0 -2 -13 -4 -30 -4 -18 0 -30 5 -30 13 0 22 -35 47 -75 54 -26
4 -39 13 -45 28 -5 13 -14 26 -20 30 -6 4 -15 18 -20 31 -5 13 -20 28 -34 33
-39 15 -65 151 -86 442 -10 138 -10 160 4 187 11 22 13 33 5 38 -6 4 -24 35
-40 70 l-29 64 -77 0 c-75 0 -76 0 -58 -20z m434 -923 c14 -6 26 -18 29 -26 5
-14 -23 -13 -163 4 -42 6 -55 3 -84 -17 -19 -12 -47 -43 -61 -68 -31 -53 -60
-65 -60 -25 0 48 49 123 90 138 30 11 225 7 249 -6z m115 -59 c-5 -7 -2 -9 7
-6 8 3 34 -4 58 -17 l44 -22 -28 -5 c-38 -8 -55 0 -56 26 -1 16 -2 17 -6 4 -4
-15 -20 -18 -116 -20 l-112 -3 -28 -52 c-42 -79 -83 -66 -47 15 25 56 53 72
125 71 47 -1 138 10 163 20 2 0 0 -4 -4 -11z m216 -92 l55 -25 -42 0 c-50 -1
-73 7 -73 24 0 8 -4 17 -10 20 -5 3 -7 0 -4 -8 7 -18 -97 -39 -151 -30 -42 7
-69 -13 -85 -63 -8 -23 -18 -34 -31 -34 -26 0 -25 39 2 91 l20 41 67 -7 c53
-5 71 -3 87 9 27 21 95 14 165 -18z m88 -53 c3 -10 -14 -13 -62 -13 -93 0
-132 -18 -157 -75 -28 -63 -68 -60 -54 5 9 41 50 78 98 89 59 13 169 9 175 -6z
m-972 -1014 c7 -8 16 -29 20 -47 6 -32 6 -32 -35 -32 -34 0 -41 3 -41 20 0 11
-6 20 -14 20 -28 0 -27 -21 0 -64 23 -37 30 -42 39 -29 6 8 22 13 36 11 22 -3
24 -8 27 -67 2 -44 9 -73 22 -91 19 -27 19 -28 0 -45 -15 -13 -42 -19 -104
-23 -81 -4 -86 -3 -112 23 -24 24 -26 31 -22 92 3 54 8 68 28 83 22 17 22 18
6 41 -29 42 -17 106 24 123 26 10 111 0 126 -15z m-2186 -680 l0 -211 23 6
c12 3 43 6 70 6 l47 0 0 205 0 205 140 0 140 0 0 -267 c0 -148 -3 -352 -7
-454 l-6 -187 -106 -17 c-58 -9 -118 -19 -133 -22 l-28 -5 0 189 0 190 -22 -3
c-13 -2 -44 -6 -70 -9 l-48 -6 0 -195 c0 -107 -2 -194 -4 -194 -2 0 -58 -11
-126 -25 -68 -14 -129 -25 -136 -25 -12 0 -14 87 -14 515 l0 515 140 0 140 0
0 -211z m1138 196 c84 -25 82 -14 82 -385 0 -379 1 -373 -92 -408 -59 -22
-356 -57 -477 -57 -70 0 -74 2 -102 33 l-29 32 0 344 c0 219 4 354 11 374 24
68 73 80 340 81 166 1 227 -2 267 -14z m728 -62 l22 -73 -139 0 -139 0 0 -245
0 -245 139 0 140 0 -25 -74 -25 -73 -193 -8 c-214 -8 -262 -1 -295 42 -20 25
-21 38 -21 353 0 297 2 330 18 349 34 43 82 50 296 48 l199 -2 23 -72z m384
-94 c0 -170 0 -170 22 -167 18 2 33 31 88 168 l66 165 137 3 c98 2 137 -1 137
-9 0 -6 -34 -90 -76 -186 l-75 -176 75 -206 c41 -113 76 -213 78 -221 2 -11
-5 -14 -27 -13 -16 1 -83 5 -147 8 l-118 7 -52 164 c-49 156 -53 164 -77 164
l-26 0 3 -160 3 -160 -141 0 -140 0 0 395 0 395 135 0 135 0 0 -171z m1070 99
c12 -40 23 -79 26 -87 4 -12 -18 -13 -141 -7 l-145 7 0 -101 0 -100 49 0 c26
0 76 -3 110 -6 l61 -7 0 -75 0 -75 -110 8 -110 7 0 -90 0 -89 140 -13 c77 -7
140 -15 140 -18 0 -7 -41 -146 -46 -153 -2 -3 -47 0 -101 7 -54 7 -154 17
-223 24 -69 6 -140 13 -157 16 l-33 5 0 409 0 410 260 0 259 0 21 -72z m366
46 c43 -171 113 -406 118 -394 3 8 30 105 59 215 l54 200 136 3 c116 2 137 0
137 -12 0 -14 -118 -362 -209 -614 -39 -109 -41 -119 -41 -233 0 -65 -3 -119
-7 -119 -6 0 -211 37 -250 46 -22 4 -23 8 -23 121 l0 116 -61 166 c-48 132
-147 392 -194 514 -7 16 4 17 134 17 l141 0 6 -26z m-1461 -1089 c151 -38 229
-93 229 -162 0 -30 -7 -43 -42 -73 -83 -74 -239 -113 -452 -113 -213 0 -369
39 -452 113 -35 30 -42 43 -42 73 0 153 431 245 759 162z m-701 -325 c29 -17
98 -42 152 -57 90 -24 115 -26 284 -26 169 0 194 2 284 26 54 15 123 40 153
57 30 17 56 30 58 28 2 -2 1 -45 -2 -96 -5 -87 -8 -95 -36 -123 -16 -16 -46
-38 -66 -48 -153 -78 -501 -93 -702 -31 -75 23 -150 69 -166 102 -11 23 -26
198 -17 198 2 0 28 -14 58 -30z"/>
<path d="M4120 2855 c0 -43 1 -45 30 -45 35 0 37 11 9 56 -28 46 -39 43 -39
-11z"/>
<path d="M2822 2568 c-7 -7 -12 -17 -12 -22 0 -7 -21 -10 -55 -8 -32 2 -62 -1
-69 -7 -15 -13 -15 -73 3 -250 7 -77 8 -118 1 -125 -14 -14 -13 -39 3 -55 8
-8 12 -48 12 -124 l0 -112 215 0 215 0 3 30 c2 25 -6 39 -55 85 -54 52 -57 57
-58 105 0 29 7 62 17 79 9 16 14 34 12 41 -8 20 91 128 143 156 26 14 49 31
51 37 5 16 -39 32 -108 37 -37 2 -74 13 -104 30 -26 15 -59 25 -74 24 -43 -4
-71 10 -78 39 -12 49 -37 65 -62 40z"/>
<path d="M4066 4755 c-19 -19 -20 -29 -6 -56 16 -30 58 -25 66 8 12 48 -28 80
-60 48z"/>
<path d="M4094 4576 c-7 -28 11 -66 31 -66 19 0 45 28 45 49 0 44 -65 58 -76
17z"/>
<path d="M2777 4426 c-20 -8 -45 -20 -54 -27 -20 -18 -43 -71 -43 -103 0 -13
-13 -53 -30 -88 -51 -110 -74 -218 -67 -328 7 -118 18 -148 63 -179 44 -30
128 -60 171 -61 l31 0 -33 79 c-31 74 -49 134 -49 171 -1 22 120 17 224 -10
45 -12 84 -19 87 -17 2 3 -5 41 -16 85 -12 44 -21 83 -21 86 0 3 72 6 160 6
90 0 160 -4 160 -9 0 -17 115 -165 177 -227 67 -68 153 -135 207 -160 l34 -17
-63 -63 c-72 -72 -105 -132 -105 -191 0 -49 21 -77 73 -98 41 -17 46 -12 20
18 -27 29 -22 87 11 136 76 109 233 250 319 286 68 28 61 15 -18 -34 -103 -64
-209 -167 -241 -234 -27 -59 -32 -142 -10 -172 10 -14 30 -20 75 -23 l62 -4
-22 36 c-15 27 -20 45 -15 68 15 75 119 191 246 276 34 23 64 42 66 42 2 0 4
-13 4 -30 0 -26 4 -30 26 -30 23 0 25 3 22 38 -3 35 -1 37 29 40 31 3 32 3 35
-44 l3 -48 53 -11 52 -12 0 47 c0 85 -58 130 -168 130 -33 0 -77 7 -98 16 -60
25 -190 0 -240 -47 l-23 -21 -56 26 c-134 61 -295 200 -359 309 -22 37 -25 49
-16 71 15 42 12 117 -8 156 -32 66 -158 127 -337 165 -87 18 -267 19 -318 1z
m236 -70 c171 -28 357 -104 384 -156 15 -31 1 -57 -35 -67 -43 -12 -231 -8
-305 6 -67 13 -68 14 -92 61 -32 64 -71 108 -124 142 l-45 28 65 0 c35 0 104
-7 152 -14z"/>
<path d="M2932 4299 c20 -24 43 -60 53 -79 10 -19 22 -38 28 -42 44 -28 334
-35 360 -9 40 41 -219 146 -407 166 l-70 8 36 -44z"/>
<path d="M3736 4284 c-4 -10 -10 -68 -12 -129 l-5 -110 55 -134 c30 -74 53
-137 51 -139 -2 -2 -25 7 -50 22 -26 14 -45 20 -43 13 2 -7 32 -26 67 -44 l62
-32 35 22 c18 12 34 25 34 29 0 3 -16 44 -36 90 -61 141 -105 259 -128 347
-17 62 -25 79 -30 65z"/>
<path d="M3089 3943 c16 -64 19 -68 57 -82 21 -8 91 -37 154 -63 95 -41 247
-88 284 -88 5 0 -29 39 -76 88 -46 48 -103 115 -126 150 l-43 62 -133 0 -134
0 17 -67z"/>
<path d="M5310 3585 c-47 -7 -139 -16 -205 -20 -118 -8 -119 -8 -85 -23 43
-18 185 -27 275 -17 52 5 73 12 91 30 23 23 32 46 17 44 -5 -1 -46 -7 -93 -14z"/>
<path d="M4583 3560 c26 -16 55 -43 65 -59 14 -25 24 -29 75 -35 86 -9 145 -7
152 4 10 16 -34 90 -53 90 -32 0 -237 20 -262 26 -17 3 -10 -4 23 -26z"/>
<path d="M4670 3404 c0 -15 16 -16 140 -12 89 3 145 9 152 16 9 9 -23 12 -140
12 -134 0 -152 -2 -152 -16z"/>
<path d="M5159 3366 c-2 -3 -117 -10 -254 -16 -272 -13 -351 -30 -139 -30 139
0 301 14 418 35 67 12 68 13 25 14 -25 1 -48 -1 -50 -3z"/>
<path d="M1336 1375 c-59 -21 -86 -44 -138 -121 -61 -88 -155 -271 -164 -319
-14 -75 33 -153 120 -197 40 -21 52 -21 636 -20 l595 0 72 25 c157 54 271 137
396 290 l86 106 -35 20 c-19 12 -38 21 -42 21 -4 -1 -40 -42 -81 -93 -144
-180 -317 -280 -491 -281 l-74 -1 -25 80 c-13 44 -25 81 -25 82 -5 7 -641 51
-647 45 -3 -4 -21 -47 -38 -97 -18 -49 -37 -95 -43 -102 -7 -9 -42 -13 -111
-13 -90 0 -105 3 -144 26 -54 31 -68 63 -52 113 37 112 165 320 214 347 37 19
40 19 230 -30 76 -20 263 -62 415 -92 255 -52 282 -55 370 -50 107 6 172 22
256 60 62 29 124 71 124 86 0 5 -14 18 -30 30 l-31 22 -47 -30 c-59 -38 -156
-69 -252 -81 -67 -8 -95 -5 -255 26 -262 50 -485 99 -605 133 -119 34 -130 35
-184 15z"/>
<path d="M6495 1365 c-89 -27 -407 -98 -645 -143 -135 -26 -165 -28 -230 -21
-96 12 -193 43 -252 81 l-47 30 -31 -22 c-16 -12 -30 -25 -30 -30 0 -15 62
-57 124 -86 84 -38 149 -54 256 -60 88 -5 115 -2 370 50 152 30 339 72 415 92
190 49 193 49 230 30 49 -27 177 -235 214 -347 16 -50 2 -82 -52 -113 -39 -23
-54 -26 -144 -26 -69 0 -104 4 -111 13 -6 7 -25 53 -43 102 -17 50 -35 93 -38
97 -6 6 -642 -38 -647 -45 0 -1 -12 -38 -25 -82 l-25 -80 -74 1 c-174 1 -347
101 -491 281 -41 51 -77 92 -81 93 -4 0 -23 -9 -42 -21 l-35 -20 86 -106 c125
-153 239 -236 396 -290 l72 -25 595 0 c584 -1 596 -1 636 20 85 44 134 122
120 194 -12 66 -127 280 -198 371 -64 80 -150 100 -273 62z"/>
<path d="M3017 945 c-4 -8 -2 -17 3 -20 11 -7 -27 -97 -46 -108 -24 -13 -16
-34 17 -46 45 -16 49 -14 48 17 -1 15 3 38 10 52 9 22 11 17 8 -34 -2 -52 0
-59 20 -67 19 -7 27 -2 54 36 18 25 34 43 36 41 6 -5 -16 -47 -34 -64 -19 -19
-16 -27 12 -40 47 -21 61 -14 56 26 -3 22 30 100 45 106 27 10 13 32 -30 48
l-45 17 -31 -47 -32 -47 6 56 6 57 -40 16 c-50 20 -56 20 -63 1z"/>
<path d="M4870 924 c-19 -8 -36 -16 -37 -18 -7 -7 9 -36 17 -31 10 6 18 -113
8 -123 -4 -4 -3 -13 1 -21 14 -21 80 6 73 31 -2 10 -9 18 -16 18 -10 1 32 29
44 30 3 0 6 -10 7 -21 1 -12 4 -23 6 -25 4 -5 77 24 77 30 0 5 -136 146 -141
146 -2 -1 -20 -8 -39 -16z m64 -85 c-10 -16 -24 -9 -24 12 0 18 2 19 15 9 8
-7 12 -16 9 -21z"/>
<path d="M4675 859 c-33 -11 -65 -21 -72 -24 -20 -7 5 -67 26 -63 9 2 15 11
15 21 -1 9 4 17 11 17 15 0 46 -102 33 -111 -5 -3 -6 -13 -3 -21 9 -23 85 -3
85 22 0 10 -6 20 -13 23 -17 6 -43 94 -32 105 4 4 10 1 12 -5 8 -21 43 -16 43
6 0 55 -13 59 -105 30z"/>
<path d="M3313 833 c7 -34 -14 -115 -31 -121 -22 -7 -13 -40 12 -46 13 -3 31
-8 39 -12 9 -3 16 2 20 15 3 11 1 21 -4 23 -12 4 17 95 36 114 22 22 19 31
-12 38 -16 4 -37 10 -47 13 -16 5 -18 1 -13 -24z"/>
<path d="M3453 793 c7 -34 -11 -123 -24 -123 -5 0 -9 -8 -9 -19 0 -13 10 -20
31 -25 50 -10 51 -9 44 38 -9 60 9 67 25 10 15 -51 33 -74 59 -74 14 0 20 15
31 72 7 43 19 78 29 85 20 15 7 28 -37 37 -25 4 -34 2 -39 -10 -3 -9 -1 -19 5
-23 7 -4 9 -17 4 -35 -7 -27 -9 -26 -25 27 -15 48 -21 55 -48 61 -49 9 -52 8
-46 -21z"/>
<path d="M4435 803 c-40 -10 -48 -25 -42 -83 8 -91 20 -110 65 -110 56 0 101
18 108 44 6 23 -10 107 -27 137 -10 19 -55 24 -104 12z m65 -59 c17 -43 12
-82 -10 -89 -29 -9 -37 0 -45 51 -5 34 -3 49 7 55 23 15 38 10 48 -17z"/>
<path d="M3693 764 c-3 -9 0 -20 7 -24 14 -9 4 -111 -13 -121 -22 -14 2 -39
38 -39 l35 0 -5 58 -5 57 31 -62 c24 -50 36 -63 54 -63 28 0 35 16 35 85 0 34
5 57 15 65 25 21 17 37 -22 43 -20 4 -40 4 -45 1 -11 -7 -10 -34 2 -34 6 0 10
-11 10 -25 0 -38 -13 -30 -33 19 -14 35 -24 45 -49 50 -44 9 -48 8 -55 -10z"/>
<path d="M4205 771 c-28 -6 -30 -9 -30 -51 0 -47 3 -50 78 -65 38 -8 36 -35
-3 -35 -16 0 -30 5 -30 10 0 13 -37 13 -45 0 -3 -5 -1 -19 5 -30 9 -16 21 -20
61 -20 71 0 89 12 89 60 0 44 -9 52 -64 60 -22 3 -41 10 -43 16 -5 16 37 25
43 10 6 -15 54 -9 54 6 0 5 -5 18 -10 29 -11 20 -44 23 -105 10z"/>
<path d="M3946 743 c5 -10 9 -53 8 -95 l0 -78 78 0 78 0 0 30 c0 25 -4 30 -25
30 -14 0 -25 -4 -25 -10 0 -5 -9 -10 -20 -10 -11 0 -20 7 -20 15 0 8 9 15 20
15 13 0 20 7 20 20 0 13 -7 20 -20 20 -13 0 -20 7 -20 20 0 13 7 20 20 20 11
0 20 -4 20 -10 0 -5 9 -10 20 -10 16 0 20 7 20 30 l0 30 -81 0 c-74 0 -80 -2
-73 -17z"/>
</g>
</svg>
